<svg id="visual" viewBox="0 0 1080 230" width="1080" height="230" xmlns="http://www.w3.org/2000/svg" xmlns:xlink="http://www.w3.org/1999/xlink" version="1.1"><rect x="0" y="0" width="1080" height="230" fill="#ffffff"></rect><path d="M0 77L12.8 85.7C25.7 94.3 51.3 111.7 77 111.8C102.7 112 128.3 95 154 95C179.7 95 205.3 112 231.2 110.5C257 109 283 89 308.8 85.2C334.7 81.3 360.3 93.7 386 106.7C411.7 119.7 437.3 133.3 463 128.5C488.7 123.7 514.3 100.3 540 91.5C565.7 82.7 591.3 88.3 617 91.7C642.7 95 668.3 96 694 102.7C719.7 109.3 745.3 121.7 771.2 119.5C797 117.3 823 100.7 848.8 96.8C874.7 93 900.3 102 926 109.8C951.7 117.7 977.3 124.3 1003 126.3C1028.7 128.3 1054.3 125.7 1067.2 124.3L1080 123L1080 231L1067.2 231C1054.3 231 1028.7 231 1003 231C977.3 231 951.7 231 926 231C900.3 231 874.7 231 848.8 231C823 231 797 231 771.2 231C745.3 231 719.7 231 694 231C668.3 231 642.7 231 617 231C591.3 231 565.7 231 540 231C514.3 231 488.7 231 463 231C437.3 231 411.7 231 386 231C360.3 231 334.7 231 308.8 231C283 231 257 231 231.2 231C205.3 231 179.7 231 154 231C128.3 231 102.7 231 77 231C51.3 231 25.7 231 12.8 231L0 231Z" fill="#69dbfa"></path><path d="M0 108L12.8 115.3C25.7 122.7 51.3 137.3 77 139.8C102.7 142.3 128.3 132.7 154 127.3C179.7 122 205.3 121 231.2 115.8C257 110.7 283 101.3 308.8 96.5C334.7 91.7 360.3 91.3 386 96.2C411.7 101 437.3 111 463 117.8C488.7 124.7 514.3 128.3 540 130.2C565.7 132 591.3 132 617 124.5C642.7 117 668.3 102 694 101C719.7 100 745.3 113 771.2 116.3C797 119.7 823 113.3 848.8 118.2C874.7 123 900.3 139 926 146.2C951.7 153.3 977.3 151.7 1003 142.3C1028.7 133 1054.3 116 1067.2 107.5L1080 99L1080 231L1067.2 231C1054.3 231 1028.7 231 1003 231C977.3 231 951.7 231 926 231C900.3 231 874.7 231 848.8 231C823 231 797 231 771.2 231C745.3 231 719.7 231 694 231C668.3 231 642.7 231 617 231C591.3 231 565.7 231 540 231C514.3 231 488.7 231 463 231C437.3 231 411.7 231 386 231C360.3 231 334.7 231 308.8 231C283 231 257 231 231.2 231C205.3 231 179.7 231 154 231C128.3 231 102.7 231 77 231C51.3 231 25.7 231 12.8 231L0 231Z" fill="#5bc1fe"></path><path d="M0 150L12.8 147C25.7 144 51.3 138 77 131.2C102.7 124.3 128.3 116.7 154 113.8C179.7 111 205.3 113 231.2 116.5C257 120 283 125 308.8 126.2C334.7 127.3 360.3 124.7 386 122.2C411.7 119.7 437.3 117.3 463 115C488.7 112.7 514.3 110.3 540 113.7C565.7 117 591.3 126 617 132.2C642.7 138.3 668.3 141.7 694 148.3C719.7 155 745.3 165 771.2 161.5C797 158 823 141 848.8 131.2C874.7 121.3 900.3 118.7 926 119.8C951.7 121 977.3 126 1003 128.5C1028.7 131 1054.3 131 1067.2 131L1080 131L1080 231L1067.2 231C1054.3 231 1028.7 231 1003 231C977.3 231 951.7 231 926 231C900.3 231 874.7 231 848.8 231C823 231 797 231 771.2 231C745.3 231 719.7 231 694 231C668.3 231 642.7 231 617 231C591.3 231 565.7 231 540 231C514.3 231 488.7 231 463 231C437.3 231 411.7 231 386 231C360.3 231 334.7 231 308.8 231C283 231 257 231 231.2 231C205.3 231 179.7 231 154 231C128.3 231 102.7 231 77 231C51.3 231 25.7 231 12.8 231L0 231Z" fill="#79a2f6"></path><path d="M0 148L12.8 150.3C25.7 152.7 51.3 157.3 77 162.3C102.7 167.3 128.3 172.7 154 172.8C179.7 173 205.3 168 231.2 164.2C257 160.3 283 157.7 308.8 158.5C334.7 159.3 360.3 163.7 386 167.5C411.7 171.3 437.3 174.7 463 173.7C488.7 172.7 514.3 167.3 540 167.3C565.7 167.3 591.3 172.7 617 170C642.7 167.3 668.3 156.7 694 158.3C719.7 160 745.3 174 771.2 178C797 182 823 176 848.8 172.7C874.7 169.3 900.3 168.7 926 172.2C951.7 175.7 977.3 183.3 1003 187C1028.7 190.7 1054.3 190.3 1067.2 190.2L1080 190L1080 231L1067.2 231C1054.3 231 1028.7 231 1003 231C977.3 231 951.7 231 926 231C900.3 231 874.7 231 848.8 231C823 231 797 231 771.2 231C745.3 231 719.7 231 694 231C668.3 231 642.7 231 617 231C591.3 231 565.7 231 540 231C514.3 231 488.7 231 463 231C437.3 231 411.7 231 386 231C360.3 231 334.7 231 308.8 231C283 231 257 231 231.2 231C205.3 231 179.7 231 154 231C128.3 231 102.7 231 77 231C51.3 231 25.7 231 12.8 231L0 231Z" fill="#a27ed9"></path><path d="M0 169L12.8 168.7C25.7 168.3 51.3 167.7 77 172.2C102.7 176.7 128.3 186.3 154 189.2C179.7 192 205.3 188 231.2 182.7C257 177.3 283 170.7 308.8 171C334.7 171.3 360.3 178.7 386 182.5C411.7 186.3 437.3 186.7 463 183C488.7 179.3 514.3 171.7 540 167C565.7 162.3 591.3 160.7 617 166.2C642.7 171.7 668.3 184.3 694 188.3C719.7 192.3 745.3 187.7 771.2 188C797 188.3 823 193.7 848.8 191.3C874.7 189 900.3 179 926 176.2C951.7 173.3 977.3 177.7 1003 178.7C1028.7 179.7 1054.3 177.3 1067.2 176.2L1080 175L1080 231L1067.2 231C1054.3 231 1028.7 231 1003 231C977.3 231 951.7 231 926 231C900.3 231 874.7 231 848.8 231C823 231 797 231 771.2 231C745.3 231 719.7 231 694 231C668.3 231 642.7 231 617 231C591.3 231 565.7 231 540 231C514.3 231 488.7 231 463 231C437.3 231 411.7 231 386 231C360.3 231 334.7 231 308.8 231C283 231 257 231 231.2 231C205.3 231 179.7 231 154 231C128.3 231 102.7 231 77 231C51.3 231 25.7 231 12.8 231L0 231Z" fill="#bf53a8"></path><path d="M0 220L12.8 214.5C25.7 209 51.3 198 77 196.3C102.7 194.7 128.3 202.3 154 204.7C179.7 207 205.3 204 231.2 199.5C257 195 283 189 308.8 185.8C334.7 182.7 360.3 182.3 386 187.8C411.7 193.3 437.3 204.7 463 206.5C488.7 208.3 514.3 200.7 540 196.2C565.7 191.7 591.3 190.3 617 190.3C642.7 190.3 668.3 191.7 694 195.7C719.7 199.7 745.3 206.3 771.2 204.7C797 203 823 193 848.8 191.3C874.7 189.7 900.3 196.3 926 197.3C951.7 198.3 977.3 193.7 1003 190.3C1028.7 187 1054.3 185 1067.2 184L1080 183L1080 231L1067.2 231C1054.3 231 1028.7 231 1003 231C977.3 231 951.7 231 926 231C900.3 231 874.7 231 848.8 231C823 231 797 231 771.2 231C745.3 231 719.7 231 694 231C668.3 231 642.7 231 617 231C591.3 231 565.7 231 540 231C514.3 231 488.7 231 463 231C437.3 231 411.7 231 386 231C360.3 231 334.7 231 308.8 231C283 231 257 231 231.2 231C205.3 231 179.7 231 154 231C128.3 231 102.7 231 77 231C51.3 231 25.7 231 12.8 231L0 231Z" fill="#c62368"></path></svg>