<svg id="visual" viewBox="0 0 1080 230" width="1080" height="230" xmlns="http://www.w3.org/2000/svg" xmlns:xlink="http://www.w3.org/1999/xlink" version="1.1"><rect x="0" y="0" width="1080" height="230" fill="#212529"></rect><path d="M0 133L64 88L127 84L191 112L254 137L318 89L381 118L445 125L508 135L572 118L635 95L699 136L762 113L826 108L889 128L953 114L1016 117L1080 101L1080 0L1016 0L953 0L889 0L826 0L762 0L699 0L635 0L572 0L508 0L445 0L381 0L318 0L254 0L191 0L127 0L64 0L0 0Z" fill="#d54100"></path><path d="M0 93L64 104L127 101L191 108L254 62L318 71L381 81L445 101L508 88L572 86L635 80L699 86L762 79L826 66L889 102L953 98L1016 81L1080 77L1080 0L1016 0L953 0L889 0L826 0L762 0L699 0L635 0L572 0L508 0L445 0L381 0L318 0L254 0L191 0L127 0L64 0L0 0Z" fill="#d82b30"></path><path d="M0 62L64 62L127 72L191 54L254 68L318 63L381 32L445 71L508 50L572 59L635 27L699 57L762 49L826 73L889 55L953 79L1016 38L1080 33L1080 0L1016 0L953 0L889 0L826 0L762 0L699 0L635 0L572 0L508 0L445 0L381 0L318 0L254 0L191 0L127 0L64 0L0 0Z" fill="#d31e4e"></path><path d="M0 29L64 20L127 49L191 46L254 43L318 44L381 13L445 14L508 27L572 44L635 1L699 13L762 34L826 50L889 8L953 22L1016 15L1080 31L1080 0L1016 0L953 0L889 0L826 0L762 0L699 0L635 0L572 0L508 0L445 0L381 0L318 0L254 0L191 0L127 0L64 0L0 0Z" fill="#c62368"></path></svg>