<svg id="visual" viewBox="0 0 1080 400" width="1080" height="400" xmlns="http://www.w3.org/2000/svg" xmlns:xlink="http://www.w3.org/1999/xlink" version="1.1"><path d="M0 102L20 119.5C40 137 80 172 120 189.2C160 206.3 200 205.7 240 195.8C280 186 320 167 360 156.5C400 146 440 144 480 147.7C520 151.3 560 160.7 600 171.5C640 182.3 680 194.7 720 183C760 171.3 800 135.7 840 122.5C880 109.3 920 118.7 960 127.5C1000 136.3 1040 144.7 1060 148.8L1080 153L1080 401L1060 401C1040 401 1000 401 960 401C920 401 880 401 840 401C800 401 760 401 720 401C680 401 640 401 600 401C560 401 520 401 480 401C440 401 400 401 360 401C320 401 280 401 240 401C200 401 160 401 120 401C80 401 40 401 20 401L0 401Z" fill="#fa7268"></path><path d="M0 211L20 212.5C40 214 80 217 120 214C160 211 200 202 240 196.5C280 191 320 189 360 185.3C400 181.7 440 176.3 480 169C520 161.7 560 152.3 600 155.2C640 158 680 173 720 187.5C760 202 800 216 840 212.3C880 208.7 920 187.3 960 171.5C1000 155.7 1040 145.3 1060 140.2L1080 135L1080 401L1060 401C1040 401 1000 401 960 401C920 401 880 401 840 401C800 401 760 401 720 401C680 401 640 401 600 401C560 401 520 401 480 401C440 401 400 401 360 401C320 401 280 401 240 401C200 401 160 401 120 401C80 401 40 401 20 401L0 401Z" fill="#f36567"></path><path d="M0 229L20 234.2C40 239.3 80 249.7 120 246.5C160 243.3 200 226.7 240 213.7C280 200.7 320 191.3 360 192C400 192.7 440 203.3 480 215.2C520 227 560 240 600 234.7C640 229.3 680 205.7 720 205C760 204.3 800 226.7 840 233C880 239.3 920 229.7 960 225C1000 220.3 1040 220.7 1060 220.8L1080 221L1080 401L1060 401C1040 401 1000 401 960 401C920 401 880 401 840 401C800 401 760 401 720 401C680 401 640 401 600 401C560 401 520 401 480 401C440 401 400 401 360 401C320 401 280 401 240 401C200 401 160 401 120 401C80 401 40 401 20 401L0 401Z" fill="#eb5967"></path><path d="M0 235L20 237.3C40 239.7 80 244.3 120 241.5C160 238.7 200 228.3 240 233.8C280 239.3 320 260.7 360 268.8C400 277 440 272 480 265.2C520 258.3 560 249.7 600 247.7C640 245.7 680 250.3 720 257C760 263.7 800 272.3 840 273.8C880 275.3 920 269.7 960 266.5C1000 263.3 1040 262.7 1060 262.3L1080 262L1080 401L1060 401C1040 401 1000 401 960 401C920 401 880 401 840 401C800 401 760 401 720 401C680 401 640 401 600 401C560 401 520 401 480 401C440 401 400 401 360 401C320 401 280 401 240 401C200 401 160 401 120 401C80 401 40 401 20 401L0 401Z" fill="#e34c67"></path><path d="M0 274L20 278.2C40 282.3 80 290.7 120 290C160 289.3 200 279.7 240 274.7C280 269.7 320 269.3 360 272C400 274.7 440 280.3 480 281C520 281.7 560 277.3 600 272.2C640 267 680 261 720 263.2C760 265.3 800 275.7 840 276.3C880 277 920 268 960 273C1000 278 1040 297 1060 306.5L1080 316L1080 401L1060 401C1040 401 1000 401 960 401C920 401 880 401 840 401C800 401 760 401 720 401C680 401 640 401 600 401C560 401 520 401 480 401C440 401 400 401 360 401C320 401 280 401 240 401C200 401 160 401 120 401C80 401 40 401 20 401L0 401Z" fill="#da3f67"></path><path d="M0 295L20 302.2C40 309.3 80 323.7 120 324.8C160 326 200 314 240 310.2C280 306.3 320 310.7 360 316.3C400 322 440 329 480 325.7C520 322.3 560 308.7 600 308.3C640 308 680 321 720 321.3C760 321.7 800 309.3 840 305.5C880 301.7 920 306.3 960 310.2C1000 314 1040 317 1060 318.5L1080 320L1080 401L1060 401C1040 401 1000 401 960 401C920 401 880 401 840 401C800 401 760 401 720 401C680 401 640 401 600 401C560 401 520 401 480 401C440 401 400 401 360 401C320 401 280 401 240 401C200 401 160 401 120 401C80 401 40 401 20 401L0 401Z" fill="#d03267"></path><path d="M0 374L20 367.8C40 361.7 80 349.3 120 342.5C160 335.7 200 334.3 240 337.2C280 340 320 347 360 349.7C400 352.3 440 350.7 480 347.7C520 344.7 560 340.3 600 337.7C640 335 680 334 720 340.3C760 346.7 800 360.3 840 363.7C880 367 920 360 960 355.2C1000 350.3 1040 347.7 1060 346.3L1080 345L1080 401L1060 401C1040 401 1000 401 960 401C920 401 880 401 840 401C800 401 760 401 720 401C680 401 640 401 600 401C560 401 520 401 480 401C440 401 400 401 360 401C320 401 280 401 240 401C200 401 160 401 120 401C80 401 40 401 20 401L0 401Z" fill="#c62368"></path></svg>