<svg id="visual" viewBox="0 0 1080 230" width="1080" height="230" xmlns="http://www.w3.org/2000/svg" xmlns:xlink="http://www.w3.org/1999/xlink" version="1.1"><path d="M0 13L15 14.5C30 16 60 19 90 17.8C120 16.7 150 11.3 180 10.5C210 9.7 240 13.3 270 14.8C300 16.3 330 15.7 360 14.2C390 12.7 420 10.3 450 10C480 9.7 510 11.3 540 12.2C570 13 600 13 630 12.5C660 12 690 11 720 11.7C750 12.3 780 14.7 810 16.2C840 17.7 870 18.3 900 19.5C930 20.7 960 22.3 990 23.2C1020 24 1050 24 1065 24L1080 24L1080 0L1065 0C1050 0 1020 0 990 0C960 0 930 0 900 0C870 0 840 0 810 0C780 0 750 0 720 0C690 0 660 0 630 0C600 0 570 0 540 0C510 0 480 0 450 0C420 0 390 0 360 0C330 0 300 0 270 0C240 0 210 0 180 0C150 0 120 0 90 0C60 0 30 0 15 0L0 0Z" fill="#004cbb"></path><path d="M0 38L15 36C30 34 60 30 90 30C120 30 150 34 180 33.7C210 33.3 240 28.7 270 27.8C300 27 330 30 360 29.7C390 29.3 420 25.7 450 24.2C480 22.7 510 23.3 540 23.3C570 23.3 600 22.7 630 21.8C660 21 690 20 720 22.3C750 24.7 780 30.3 810 31.2C840 32 870 28 900 29.8C930 31.7 960 39.3 990 44C1020 48.7 1050 50.3 1065 51.2L1080 52L1080 22L1065 22C1050 22 1020 22 990 21.2C960 20.3 930 18.7 900 17.5C870 16.3 840 15.7 810 14.2C780 12.7 750 10.3 720 9.7C690 9 660 10 630 10.5C600 11 570 11 540 10.2C510 9.3 480 7.7 450 8C420 8.3 390 10.7 360 12.2C330 13.7 300 14.3 270 12.8C240 11.3 210 7.7 180 8.5C150 9.3 120 14.7 90 15.8C60 17 30 14 15 12.5L0 11Z" fill="#005feb"></path><path d="M0 49L15 47.5C30 46 60 43 90 43.8C120 44.7 150 49.3 180 52.5C210 55.7 240 57.3 270 60C300 62.7 330 66.3 360 66.3C390 66.3 420 62.7 450 58C480 53.3 510 47.7 540 45.3C570 43 600 44 630 42.5C660 41 690 37 720 39.7C750 42.3 780 51.7 810 56.3C840 61 870 61 900 61C930 61 960 61 990 63.7C1020 66.3 1050 71.7 1065 74.3L1080 77L1080 50L1065 49.2C1050 48.3 1020 46.7 990 42C960 37.3 930 29.7 900 27.8C870 26 840 30 810 29.2C780 28.3 750 22.7 720 20.3C690 18 660 19 630 19.8C600 20.7 570 21.3 540 21.3C510 21.3 480 20.7 450 22.2C420 23.7 390 27.3 360 27.7C330 28 300 25 270 25.8C240 26.7 210 31.3 180 31.7C150 32 120 28 90 28C60 28 30 32 15 34L0 36Z" fill="#367cff"></path><path d="M0 84L15 81.7C30 79.3 60 74.7 90 73.5C120 72.3 150 74.7 180 78.8C210 83 240 89 270 92.8C300 96.7 330 98.3 360 94.2C390 90 420 80 450 72C480 64 510 58 540 57.2C570 56.3 600 60.7 630 60.7C660 60.7 690 56.3 720 59.8C750 63.3 780 74.7 810 79.7C840 84.7 870 83.3 900 85.3C930 87.3 960 92.7 990 95.7C1020 98.7 1050 99.3 1065 99.7L1080 100L1080 75L1065 72.3C1050 69.7 1020 64.3 990 61.7C960 59 930 59 900 59C870 59 840 59 810 54.3C780 49.7 750 40.3 720 37.7C690 35 660 39 630 40.5C600 42 570 41 540 43.3C510 45.7 480 51.3 450 56C420 60.7 390 64.3 360 64.3C330 64.3 300 60.7 270 58C240 55.3 210 53.7 180 50.5C150 47.3 120 42.7 90 41.8C60 41 30 44 15 45.5L0 47Z" fill="#6198ff"></path><path d="M0 139L15 141C30 143 60 147 90 143.5C120 140 150 129 180 133.5C210 138 240 158 270 160.7C300 163.3 330 148.7 360 136.8C390 125 420 116 450 119.5C480 123 510 139 540 140.5C570 142 600 129 630 124.8C660 120.7 690 125.3 720 131.2C750 137 780 144 810 139.8C840 135.7 870 120.3 900 121.8C930 123.3 960 141.7 990 152C1020 162.3 1050 164.7 1065 165.8L1080 167L1080 98L1065 97.7C1050 97.3 1020 96.7 990 93.7C960 90.7 930 85.3 900 83.3C870 81.3 840 82.7 810 77.7C780 72.7 750 61.3 720 57.8C690 54.3 660 58.7 630 58.7C600 58.7 570 54.3 540 55.2C510 56 480 62 450 70C420 78 390 88 360 92.2C330 96.3 300 94.7 270 90.8C240 87 210 81 180 76.8C150 72.7 120 70.3 90 71.5C60 72.7 30 77.3 15 79.7L0 82Z" fill="#6198ff"></path><path d="M0 176L15 180.2C30 184.3 60 192.7 90 190.3C120 188 150 175 180 175C210 175 240 188 270 190.7C300 193.3 330 185.7 360 181.5C390 177.3 420 176.7 450 179C480 181.3 510 186.7 540 186.3C570 186 600 180 630 179.7C660 179.3 690 184.7 720 186.8C750 189 780 188 810 190.2C840 192.3 870 197.7 900 202C930 206.3 960 209.7 990 210.2C1020 210.7 1050 208.3 1065 207.2L1080 206L1080 165L1065 163.8C1050 162.7 1020 160.3 990 150C960 139.7 930 121.3 900 119.8C870 118.3 840 133.7 810 137.8C780 142 750 135 720 129.2C690 123.3 660 118.7 630 122.8C600 127 570 140 540 138.5C510 137 480 121 450 117.5C420 114 390 123 360 134.8C330 146.7 300 161.3 270 158.7C240 156 210 136 180 131.5C150 127 120 138 90 141.5C60 145 30 141 15 139L0 137Z" fill="#367cff"></path><path d="M0 213L15 213.3C30 213.7 60 214.3 90 214.7C120 215 150 215 180 215.3C210 215.7 240 216.3 270 216.7C300 217 330 217 360 216.7C390 216.3 420 215.7 450 217.2C480 218.7 510 222.3 540 221.5C570 220.7 600 215.3 630 213.2C660 211 690 212 720 214C750 216 780 219 810 219.3C840 219.7 870 217.3 900 217.7C930 218 960 221 990 220.7C1020 220.3 1050 216.7 1065 214.8L1080 213L1080 204L1065 205.2C1050 206.3 1020 208.7 990 208.2C960 207.7 930 204.3 900 200C870 195.7 840 190.3 810 188.2C780 186 750 187 720 184.8C690 182.7 660 177.3 630 177.7C600 178 570 184 540 184.3C510 184.7 480 179.3 450 177C420 174.7 390 175.3 360 179.5C330 183.7 300 191.3 270 188.7C240 186 210 173 180 173C150 173 120 186 90 188.3C60 190.7 30 182.3 15 178.2L0 174Z" fill="#005feb"></path><path d="M0 231L15 231C30 231 60 231 90 231C120 231 150 231 180 231C210 231 240 231 270 231C300 231 330 231 360 231C390 231 420 231 450 231C480 231 510 231 540 231C570 231 600 231 630 231C660 231 690 231 720 231C750 231 780 231 810 231C840 231 870 231 900 231C930 231 960 231 990 231C1020 231 1050 231 1065 231L1080 231L1080 211L1065 212.8C1050 214.7 1020 218.3 990 218.7C960 219 930 216 900 215.7C870 215.3 840 217.7 810 217.3C780 217 750 214 720 212C690 210 660 209 630 211.2C600 213.3 570 218.7 540 219.5C510 220.3 480 216.7 450 215.2C420 213.7 390 214.3 360 214.7C330 215 300 215 270 214.7C240 214.3 210 213.7 180 213.3C150 213 120 213 90 212.7C60 212.3 30 211.7 15 211.3L0 211Z" fill="#004cbb"></path></svg>