<svg id="visual" viewBox="0 0 1080 420" width="1080" height="420" xmlns="http://www.w3.org/2000/svg" xmlns:xlink="http://www.w3.org/1999/xlink" version="1.1"><rect x="0" y="0" width="1080" height="420" fill="#212529"></rect><path d="M0 243L10.7 253.3C21.3 263.7 42.7 284.3 63.8 288.3C85 292.3 106 279.7 127.2 272.2C148.3 264.7 169.7 262.3 190.8 266.5C212 270.7 233 281.3 254.2 288.2C275.3 295 296.7 298 317.8 292.7C339 287.3 360 273.7 381.2 273.7C402.3 273.7 423.7 287.3 444.8 291.8C466 296.3 487 291.7 508.2 286.2C529.3 280.7 550.7 274.3 571.8 265.7C593 257 614 246 635.2 243C656.3 240 677.7 245 698.8 259.7C720 274.3 741 298.7 762.2 292.8C783.3 287 804.7 251 825.8 243.8C847 236.7 868 258.3 889.2 274.5C910.3 290.7 931.7 301.3 952.8 303C974 304.7 995 297.3 1016.2 288.3C1037.3 279.3 1058.7 268.7 1069.3 263.3L1080 258L1080 421L1069.3 421C1058.7 421 1037.3 421 1016.2 421C995 421 974 421 952.8 421C931.7 421 910.3 421 889.2 421C868 421 847 421 825.8 421C804.7 421 783.3 421 762.2 421C741 421 720 421 698.8 421C677.7 421 656.3 421 635.2 421C614 421 593 421 571.8 421C550.7 421 529.3 421 508.2 421C487 421 466 421 444.8 421C423.7 421 402.3 421 381.2 421C360 421 339 421 317.8 421C296.7 421 275.3 421 254.2 421C233 421 212 421 190.8 421C169.7 421 148.3 421 127.2 421C106 421 85 421 63.8 421C42.7 421 21.3 421 10.7 421L0 421Z" fill="#3a67bc" stroke-linecap="round" stroke-linejoin="miter"></path></svg>